<svg xmlns="http://www.w3.org/2000/svg" width="25.01" height="32.32" viewBox="0 0 25.01 32.32"><title>IkonkiMistral</title><path d="M14.13,7.11a5.64,5.64,0,0,1,1.14.48,1.69,1.69,0,0,0,.17,2.16,1.63,1.63,0,0,0,2.11.19A5.82,5.82,0,0,1,18,11a1.67,1.67,0,0,0,0,3.3,5.81,5.81,0,0,1-.43,1.07,1.63,1.63,0,0,0-2.12.18,1.69,1.69,0,0,0-.15,2.18,5.64,5.64,0,0,1-1.15.49,1.64,1.64,0,0,0-3.25,0,5.64,5.64,0,0,1-1.06-.44,1.69,1.69,0,0,0-.13-2.2,1.62,1.62,0,0,0-1.16-.49,1.64,1.64,0,0,0-1,.37A5.82,5.82,0,0,1,7,14.32,1.67,1.67,0,0,0,7,11,5.81,5.81,0,0,1,7.5,9.85a1.64,1.64,0,0,0,1,.36,1.62,1.62,0,0,0,1.16-.49,1.69,1.69,0,0,0,.15-2.19,5.64,5.64,0,0,1,1-.43,1.64,1.64,0,0,0,3.25,0m0-1.5a1.5,1.5,0,0,0-1.48,1.29.14.14,0,1,1-.28,0,1.5,1.5,0,0,0-1.92-1.22,7.16,7.16,0,0,0-1.33.55,1.5,1.5,0,0,0-.5,2.21.19.19,0,0,1,0,.24.12.12,0,0,1-.09,0,.14.14,0,0,1-.09,0,1.5,1.5,0,0,0-2.25.45,7.33,7.33,0,0,0-.61,1.47,1.5,1.5,0,0,0,1.22,1.9.17.17,0,0,1,0,.33,1.5,1.5,0,0,0-1.22,1.9,7.33,7.33,0,0,0,.59,1.45,1.5,1.5,0,0,0,1,.75l.29,0a1.5,1.5,0,0,0,.94-.33.14.14,0,0,1,.09,0,.12.12,0,0,1,.09,0,.19.19,0,0,1,0,.24,1.5,1.5,0,0,0,.48,2.23,7.16,7.16,0,0,0,1.34.56,1.5,1.5,0,0,0,1.92-1.22.14.14,0,1,1,.28,0,1.5,1.5,0,0,0,1.92,1.22A7.16,7.16,0,0,0,16,19.05a1.5,1.5,0,0,0,.47-2.19.19.19,0,0,1,0-.24.13.13,0,0,1,.09,0l.08,0a1.5,1.5,0,0,0,2.21-.52,7.34,7.34,0,0,0,.54-1.34,1.5,1.5,0,0,0-1.22-1.9.17.17,0,0,1,0-.33,1.5,1.5,0,0,0,1.22-1.9,7.33,7.33,0,0,0-.55-1.36,1.5,1.5,0,0,0-2.2-.52.14.14,0,0,1-.08,0,.13.13,0,0,1-.09,0,.19.19,0,0,1,0-.24A1.5,1.5,0,0,0,16,6.28a7.16,7.16,0,0,0-1.44-.61,1.5,1.5,0,0,0-.43-.06Z"/><path d="M12.51,16a3.35,3.35,0,1,1,3.31-3.35A3.33,3.33,0,0,1,12.51,16Zm0-5.2a1.85,1.85,0,1,0,1.81,1.85A1.83,1.83,0,0,0,12.51,10.82Z"/><path d="M12.51,22.58a9.91,9.91,0,0,1,0-19.82,9.91,9.91,0,0,1,0,19.82Zm0-18.32a8.41,8.41,0,0,0,0,16.82,8.41,8.41,0,0,0,0-16.82Z"/><path d="M12.51,25.35A12.61,12.61,0,0,1,0,12.67,12.61,12.61,0,0,1,12.51,0,12.61,12.61,0,0,1,25,12.67,12.61,12.61,0,0,1,12.51,25.35Zm0-23.85a11.1,11.1,0,0,0-11,11.18,11.1,11.1,0,0,0,11,11.18,11.1,11.1,0,0,0,11-11.18A11.1,11.1,0,0,0,12.51,1.5Z"/><polygon points="8.68 27.99 2.6 24.75 4.18 21.68 5.51 22.37 4.61 24.13 8.05 25.95 8.94 24.22 10.28 24.9 8.68 27.99"/><path d="M5.39,32.32,1,30l3.11-6L8.5,26.29ZM3,29.34l1.78.94,1.74-3.37L4.71,26Z"/></svg>