<svg xmlns="http://www.w3.org/2000/svg" width="417" height="125" fill="none" viewBox="0 0 417 125">
    <mask id="prefix__a" width="417" height="125" x="0" y="0" maskUnits="userSpaceOnUse">
        <path fill="#BCCBFF" d="M0 0H417V125H0z"/>
    </mask>
    <g fill="#BCCBFF" mask="url(#prefix__a)">
        <path d="M430.684-7.84c-36.45-1.52-72.889 1.972-106.695 12.273-20.323 6.46-39.435 14.522-57.532 25.588-8.647 5.231-17.492 11.866-24.927 18.698-8.24 7.435-15.675 14.267-24.52 20.902-32.758 28.336-71.168 50.874-112.211 66.603-40.437 16.529-82.294 27.85-124.56 36.967-32.606 6.89-65.817 12.98-98.83 17.666 3.658 14.824 8.726 29.845 14.598 44.262 33.21-6.09 63.999-15.381 95.59-25.275 79.883-26.041 159.347-59.296 220.028-117.362 15.674-14.267 28.727-30.331 45.811-44.401 15.674-14.267 34.576-25.936 54.491-34.601C331.843 4.815 352.772-.845 372.699-4.5c16.908-2.644 32.814-3.282 49.326-3.12l5.035-.011 3.624-.21z"/>
        <path d="M255.798 125.853c12.447-16.866 22.878-34.728 36.128-52.197 13.857-16.668 30.335-31.538 48.433-42.604 18.902-11.668 38.212-21.134 58.535-27.594 9.054-3.028 17.305-5.452 26.965-7.68-30.193 5.081-58.965 15.37-85.511 30.264-18.704 10.265-34.786 22.328-49.248 38.196-13.659 15.264-26.105 32.13-39.962 48.798-27.713 33.336-61.684 60.072-98.683 82.806-37 22.735-75.62 41.665-115.252 57.591-36.614 14.917-73.03 28.43-109.249 40.54l7.27 9.604c8.483 11.204 17.164 21.006 27.254 31.004 34.599-15.914 67.182-32.826 99.963-51.141 72.601-40.656 144.782-88.526 193.357-157.587z"/>
        <path d="M314.561 20.289c-18.506 8.861-35.998 20.728-51.672 34.995-14.87 13.664-28.121 31.132-43.795 45.399-29.531 30.935-66.729 55.073-104.742 74.803C76.338 195.217 36.1 210.342-3.941 224.064c-31.591 9.895-62.379 19.186-94.379 26.876 5.663 10.811 10.72 20.821 17.186 31.028 37.826-13.316 75.653-26.632 111.661-42.349 79.266-31.852 155.292-71.313 210.928-134.378 13.659-15.264 26.909-32.733 41.978-47.8 15.872-15.67 34.168-28.14 52.872-38.405C355.615 9.57 375.938 3.11 397.473-1.75c8.25-2.425 17.712-3.248 26.569-4.872-38.257 1.09-75.489 10.196-109.481 26.91zM431.475-31.166C397.35-43.053 361.786-50.188 326.748-50.11c-21.141.3-41.596 2.467-61.959 7.773-9.712 2.482-20.019 6.238-29.046 10.585-9.964 4.689-18.991 9.036-29.298 12.792C167.183-1.48 124.24 8.882 80.77 12.032c-43.127 4.083-86.095 2.82-128.812-.65C-80.954 8.57-114.21 4.825-146.871-.195c-.819 15.106-.359 30.802 1.038 46.157 33.255 3.745 65.138 3.76 97.958 3.433C35.409 47.6 120.383 38.843 194.724 1.175c18.991-9.036 36.016-20.529 56.287-28.974 18.991-9.035 40.291-14.683 61.683-17.19 21.392-2.508 42.876-1.877 62.829.37 16.799 2.34 32.067 6.294 47.678 11.18l4.777 1.433 3.497.84z"/>
        <path d="M226.959 45.481c16.681-12.425 31.74-26.373 49.359-39.14 17.962-11.834 37.89-21.211 58.253-26.517 21.3-5.647 42.349-9.088 63.49-9.389 9.462-.275 17.987-.209 27.792.448-30.101-3.837-60.361-2.328-89.843 4.186-20.706 4.373-39.446 11.203-57.751 22.104-17.368 10.56-34.05 22.985-52.012 34.819-35.923 23.667-75.871 39.283-117.534 50.236C67.05 93.18 24.952 100.06-17.238 103.803c-39.036 3.649-77.478 6.025-115.326 7.126l4.116 11.192c4.802 13.056 10.198 24.839 16.874 37.212 37.413-5.173 73.203-11.87 109.587-19.841C78.62 121.75 160.917 97.047 226.96 45.482z"/>
        <path d="M313.221-37.778c-20.112 3.099-40.132 9.337-59.123 18.373-18.054 8.695-35.673 21.461-54.664 30.497-36.953 20.87-79.21 33.097-120.965 40.91C36.715 59.816-5.819 62.625-47.758 64.16c-32.82.327-64.703.313-97.272-1.567 2.242 11.874 4.142 22.816 7.321 34.348 39.722-1.784 79.444-3.569 118.137-8.15 84.38-7.484 167.89-23.11 238.892-66.965 17.368-10.56 34.987-23.327 53.635-33.295 19.585-10.31 40.542-16.89 61.248-21.263 21.049-3.44 42.19-3.742 64.017-2.178 8.525.067 17.736 1.998 26.604 2.997-36.593-9.932-74.533-11.97-111.603-5.864zM428.748-103.934c-25.971-12.665-53.538-21.689-81.374-24.936-16.82-1.757-33.273-1.968-49.952.323-7.951 1.055-16.495 3.065-24.079 5.665-8.361 2.784-15.945 5.384-24.489 7.394-32.85 10.178-67.945 14.353-102.771 12.751-34.643-.829-68.65-5.89-102.248-12.679-25.873-5.341-51.929-11.456-77.392-18.526-2.09 11.92-3.22 24.431-3.574 36.758 26.056 6.115 51.378 9.137 77.477 11.976 66.32 6.438 134.645 7.505 197.28-15.393 15.944-5.384 30.562-12.905 47.467-17.698 15.944-5.384 33.4-7.858 50.63-7.83 17.229.028 34.233 2.558 49.867 6.227 13.12 3.444 24.869 8.026 36.803 13.381l3.658 1.589 2.697.998z"/>
        <path d="M259.007-62.367c14.433-8.294 27.723-17.95 42.933-26.427 15.394-7.703 32.116-13.27 48.795-15.561 17.455-2.474 34.502-3.22 51.322-1.463 7.541.675 14.306 1.533 22.031 2.98-23.542-5.889-47.72-7.548-71.757-5.158-16.863 1.518-32.398 5.173-47.975 12.103-14.801 6.748-29.235 15.041-44.629 22.744-30.788 15.407-64.005 24.038-98.139 28.803-34.135 4.765-68.227 6.256-102.093 5.244-31.353-.787-62.112-2.53-92.278-5.229l2.203 9.278c2.57 10.823 5.733 20.691 9.857 31.15C9.485-4.48 38.55-6.42 68.207-9.317c65.713-6.48 133.432-18.33 190.8-53.051z"/>
    </g>
</svg>
