<svg xmlns="http://www.w3.org/2000/svg" width="381" height="278" fill="none" viewBox="0 0 381 278">
    <mask id="prefix__a" width="822" height="796" x="-291" y="-298" maskUnits="userSpaceOnUse">
        <path fill="#BCCBFF" d="M222.35-169.81c23.433-16.401 44.698-34.962 69.433-51.795 25.168-15.537 52.938-27.618 81.14-34.086 29.503-6.899 58.571-10.776 87.638-10.334 13.015.004 24.728.44 38.176 1.739-41.211-6.49-82.859-5.64-123.642 2.119-28.635 5.172-54.669 13.8-80.27 28.041-24.3 13.81-47.733 30.211-72.902 45.748-50.336 31.073-105.874 50.918-163.58 64.285C.64-110.726-57.496-102.972-115.631-99.537c-53.797 3.437-106.725 5.147-158.785 5.13l5.2 15.546c6.067 18.138 13.002 34.55 21.672 51.825 51.628-5.597 101.088-13.353 151.416-22.837C15.374-70.993 129.483-101.614 222.35-169.81z"/>
        <path fill="#BCCBFF" d="M490.688-193.939c-44.368-7.31-89.478-8.488-132.394-.941-25.84 4.866-50.44 11.871-74.252 22.704-11.369 5.107-23.193 11.902-33.321 19.149-11.202 7.864-21.33 15.111-33.154 21.906-44.357 29.772-94.752 51.602-147.342 64.708C18.255-52.237-34.666-44.645-87.755-39.81c-40.932 3.554-82.485 6.038-123.583 6.835 2.238 18.684 6.171 37.82 11.179 56.338 41.553-2.484 80.624-9.248 120.77-16.63C22.277-13.181 124.52-41.985 207.528-103.954c21.33-15.111 39.725-32.815 62.751-47.474 21.331-15.112 46.218-26.562 71.893-34.185 25.674-7.623 52.135-11.419 77.067-12.909 21.087-.707 40.644.891 60.822 3.558l6.161.739 4.466.287z"/>
        <path fill="#BCCBFF" d="M256.537-56.52c17.774-18.773 33.232-39.069 52.081-58.46 19.469-18.321 41.875-34.05 65.688-44.882 24.887-11.45 49.941-20.143 75.782-25.009 11.535-2.35 21.995-4.082 34.151-5.362-37.708 1.701-74.463 9.986-109.191 24.238-24.433 9.763-45.93 22.117-66.02 39.368-19.015 16.634-36.789 35.407-56.258 53.728-38.938 36.642-84.536 64.274-133.237 86.557-48.7 22.282-98.808 39.668-149.702 53.226-47.05 12.775-93.644 23.863-139.785 33.263l7.446 12.837c8.687 14.978 17.829 28.268 28.666 42.01 44.733-14.297 87.15-30.116 130.022-47.623C91.143 68.487 186.683 20.712 256.537-56.52z"/>
        <path fill="#BCCBFF" d="M344.366-176.89c-23.979 8.075-47.171 19.977-68.502 35.089-20.256 14.494-39.105 33.885-60.436 48.997-40.8 33.432-89.954 57.402-139.441 75.858C26.499 1.509-25.015 13.998-76.076 24.799c-40.146 7.38-79.217 14.144-119.529 18.768 5.297 14.074 9.973 27.077 16.344 40.532 48.29-10.635 96.58-21.27 143.01-35.115C65.536 21.867 164.51-15.044 242.1-83.883c19.015-16.634 37.863-36.025 58.574-52.206 21.785-16.799 46.052-29.319 70.485-39.082 25.054-8.693 50.894-13.558 77.976-16.284 10.46-1.733 22.162-1.325 33.242-1.988-46.971-4.386-93.898 1.186-138.011 16.553zM519.088-122.812c-49.709-.182-99.141 6.458-144.633 22.233-27.334 9.849-52.935 21.814-76.999 37.818-11.5 7.57-23.197 17.062-32.964 26.75-10.83 10.55-20.596 20.236-32.293 29.728C189.075 33.996 137.954 66.67 82.893 90.21c-54.195 24.599-110.597 42.18-167.67 56.782-44.035 11.069-88.937 21.08-133.642 29.169 5.755 19.994 13.44 40.184 22.188 59.511 44.902-10.01 86.336-24.255 128.835-39.362C40.01 156.719 146.47 107.326 226.06 25.124c20.597-20.237 37.53-42.786 60.057-62.828 20.597-20.237 45.724-37.104 72.388-49.932 26.664-12.829 54.865-21.619 81.806-27.626 22.884-4.476 44.509-6.168 67-6.802l6.854-.276 4.923-.472z"/>
        <path fill="#BCCBFF" d="M287.95 68.274c16.066-23.608 29.335-48.469 46.465-72.94 17.996-23.412 39.656-44.512 63.72-60.515 25.127-16.867 50.924-30.754 78.259-40.603 12.17-4.59 23.277-8.318 36.314-11.851-40.845 8.481-79.483 23.979-114.85 45.632-24.931 14.945-46.197 32.202-65.061 54.556-17.799 21.491-33.866 45.099-51.862 68.511-35.993 46.824-80.85 84.986-130.041 117.856-49.191 32.871-100.785 60.644-153.917 84.38-49.075 22.206-97.953 42.49-146.634 60.853l10.401 12.7c12.135 14.818 24.466 27.714 38.728 40.805 46.277-23.459 89.758-48.173 133.436-74.807 96.729-59.114 192.51-128.029 255.042-224.577z"/>
        <path fill="#BCCBFF" d="M362.446-78.502c-24.734 13.024-47.931 30.086-68.528 50.323-19.533 19.375-36.663 43.845-57.26 64.082-38.593 43.65-87.98 78.441-138.708 107.273-50.728 28.832-104.726 51.51-158.528 72.266-42.498 15.107-83.933 29.351-127.101 41.479 8.274 14.426 15.682 27.793 25.02 41.357 50.808-20.089 101.617-40.178 149.825-63.442C93.429 187.365 194.885 129.7 267.344 40.952c17.8-21.49 34.929-45.961 54.659-67.257 20.793-22.158 45.054-40.083 69.984-55.028 25.797-13.887 53.132-23.736 82.2-31.468 11.107-3.728 23.947-5.339 35.921-8.009-52.033 3.465-102.251 17.79-147.662 42.308zM530.246-49.02c-44.088 8.83-86.685 23.654-124.122 45.861-22.427 13.672-42.931 28.906-61.336 47.441-8.811 8.79-17.444 19.317-24.332 29.668-7.672 11.309-14.56 21.66-23.193 32.187-30.866 43.496-70.208 81.699-114.709 112.519-43.54 31.602-90.317 57.383-138.231 80.646-37.005 17.773-74.972 34.766-113.115 50.02 8.75 16.679 19.245 33.183 30.526 48.729 37.966-16.993 72.088-37.11 106.994-58.185 87.962-54.512 173.295-117.539 228.827-204.784 14.56-21.66 25.451-44.706 41.757-66.542 14.56-21.66 33.75-41.152 55.039-57.344 21.289-16.191 44.678-29.082 67.458-39.277 19.464-8.106 38.319-13.516 58.136-18.146l6.024-1.484 4.277-1.309z"/>
        <path fill="#BCCBFF" d="M360.28 162.13c9.929-23.827 17.151-48.26 27.866-73.045 11.676-24.004 27.02-46.62 45.426-65.156 19.19-19.492 39.518-36.464 61.945-50.136 9.948-6.27 19.111-11.582 30.02-17.07-34.651 14.902-66.064 35.625-93.456 61.21-19.367 17.754-35.064 36.895-47.701 60.117-11.853 22.265-21.782 46.093-33.458 70.097-23.352 48.007-56.14 89.94-93.736 127.967-37.595 38.027-78.251 71.972-121.006 102.617-39.439 28.555-79.054 55.371-118.846 80.45l11.536 9.374c13.46 10.937 26.741 20.136 41.77 29.159 36.731-29.161 70.755-58.926 104.603-90.43 74.935-69.882 147.241-148.28 185.037-245.154z"/>
        <path fill="#BCCBFF" d="M399.511 18.579c-19.543 16.015-36.987 35.332-51.547 56.992-13.775 20.702-24.489 45.487-39.049 67.147-26.236 45.663-63.654 85.429-103.349 120.155-39.694 34.727-83.411 64.59-127.303 92.715C43.357 376.663 9.235 396.78-26.81 415.335c9.967 11.289 18.972 21.796 29.723 32.127 41.362-26.992 82.723-53.984 121.201-83.32 85.51-61.289 164.899-130.742 212.916-222.499 11.852-22.265 22.567-47.05 36.165-69.49 14.384-23.399 32.612-43.672 51.979-61.426 20.328-16.973 42.755-30.645 67.105-42.754 9.163-5.313 20.249-9.063 30.373-13.594-45.481 12.48-87.372 34.258-123.142 64.2z"/>
    </mask>
    <g mask="url(#prefix__a)">
        <path fill="#DADADA" d="M381 278H762V556H381z" transform="rotate(-180 381 278)"/>
    </g>
</svg>
