<svg xmlns="http://www.w3.org/2000/svg" width="381" height="521" fill="none" viewBox="0 0 381 521">
    <mask id="prefix__a" width="858" height="811" x="-203" y="-228" maskUnits="userSpaceOnUse">
        <path fill="#BCCBFF" d="M-148.148 434.481c41.612 27.069 86.72 48.263 133.513 59.659 28.318 6.536 56.339 10.358 85.277 9.959 13.787-.125 28.788-1.757 42.277-4.597 14.853-2.988 28.342-5.828 43.344-7.459 58.196-10.449 118.948-10.186 178.015-.125C393.196 500.622 450.131 516.41 506 535.06c43 14.556 86.148 30.468 128.081 47.887 6.098-19.894 10.682-40.996 13.903-61.95-43.148-15.913-85.7-26.396-129.616-36.731-111.762-24.936-228.085-41.135-339.791-15.254-28.342 5.829-54.873 15.582-84.727 20.201-28.342 5.829-58.644 6.376-88.028 2.703-29.385-3.673-57.852-11.567-83.741-21.115-21.649-8.635-40.719-18.924-59.938-30.57l-5.902-3.48-4.389-2.27z"/>
        <path fill="#BCCBFF" d="M150.225 399.293c-26.382 11.111-51.102 24.787-78.849 36.045-27.895 9.901-57.6 15.878-86.538 16.277-30.301.548-59.537-1.768-87.855-8.304-12.721-2.738-24.079-5.624-36.949-9.719 38.908 15 79.799 22.917 121.309 23.898 29.086.958 56.362-2.007 84.406-10.551 26.68-8.395 53.063-19.505 80.958-29.406 55.79-19.802 114.284-27.535 173.523-28.482 59.239-.946 117.71 3.686 175.264 12.538 53.314 7.939 105.413 17.385 156.297 28.335l-1.787-16.289c-2.086-19.003-5.386-36.501-10.199-55.209-51.652-5.373-101.642-8.179-152.847-9.48-113.47-2.773-231.502 3.192-336.733 50.347z"/>
        <path fill="#BCCBFF" d="M7.506 482.117c27.872 2.464 56.66.708 85.002-5.121 26.978-5.68 54.724-16.939 83.066-22.767 56.237-15.73 116.691-18.182 175.013-14.908 58.322 3.275 116.026 13.484 172.514 25.199 43.916 10.335 86.468 20.818 129.319 34.016.94-16.585 2.029-31.813 1.605-48.251-53.611-10.654-107.223-21.308-160.388-27.89-115.108-17.705-231.752-24.253-341.052 10.982-26.68 8.395-54.426 19.654-82.619 26.84-29.556 7.334-59.709 9.239-88.796 8.28-29.235-2.315-57.554-8.852-86.17-18.103-11.357-2.886-23.013-8.487-34.519-12.73 45.555 25.266 95.522 40.438 147.025 44.453z"/>
        <path fill="#BCCBFF" d="M-147.826 421.361c43.435 11.599 88.212 17.167 131.665 13.839 26.195-2.324 51.365-6.898 76.129-15.357 11.817-3.975 24.251-9.585 35.044-15.81 11.922-6.735 22.714-12.96 35.149-18.57 47.072-25.304 99.373-42.118 153-50.036 53.113-9.043 106.528-11.44 159.836-11.076 41.086.452 82.684 2.03 123.663 5.243-.389-18.812-2.421-38.24-5.584-57.157-41.598-1.578-81.146 1.345-121.825 4.778-103.137 9.91-207.722 28.611-296.426 82.191-22.715 12.96-42.762 28.786-67.12 41.131-22.715 12.96-48.609 21.929-74.91 27.013-26.3 5.084-53.008 6.283-77.966 5.336-21.055-1.351-40.362-4.848-60.18-9.469l-6.059-1.336-4.416-.72z"/>
        <path fill="#BCCBFF" d="M98.716 307.423c-19.535 16.951-36.915 35.642-57.58 53.103-21.178 16.335-45.024 29.805-69.788 38.264-25.894 8.97-51.682 15.179-77.877 17.503-11.711 1.214-22.292 1.919-34.515 2.008 37.694 1.982 75.088-2.681 111.05-13.48 25.277-7.334 47.885-17.534 69.576-32.744 20.56-14.701 40.094-31.651 61.272-47.987 42.356-32.671 90.453-55.725 141.111-73.154 50.658-17.429 102.235-29.847 154.219-38.38 48.08-8.128 95.541-14.621 142.385-19.479l-6.148-13.502c-7.172-15.752-14.962-29.869-24.395-44.601-45.925 9.868-89.694 21.477-134.082 34.721-98.332 29.442-198.112 67.675-275.228 137.728z"/>
        <path fill="#BCCBFF" d="M-.53 418.654c24.658-5.699 48.91-15.283 71.624-28.244 21.584-12.45 42.25-29.91 64.965-42.87 43.892-29.296 95.169-48.36 146.233-61.903 51.065-13.544 103.561-20.951 155.438-26.724 40.679-3.433 80.228-6.356 120.801-7.028-3.887-14.522-7.261-27.919-12.278-41.931-49.104 5.878-98.209 11.756-145.776 21.009-103.967 17.066-206.096 44.152-290.084 105.099-20.56 14.7-41.225 32.161-63.428 46.246-23.333 14.595-48.715 24.69-73.99 32.024-25.79 6.209-51.984 8.533-79.204 8.606-10.58.705-22.185-.841-33.278-1.262 46.314 8.944 93.564 7.972 138.977-3.022z"/>
        <path fill="#BCCBFF" d="M-202.593 410.229c49.709.182 99.142-6.459 144.633-22.233 27.335-9.849 52.935-21.815 77-37.818 11.5-7.571 23.196-17.062 32.963-26.749 10.83-10.55 20.597-20.237 32.293-29.729 43.124-40.279 94.245-72.953 149.307-96.494 54.195-24.598 110.597-42.18 167.669-56.781 44.035-11.069 88.937-21.08 133.642-29.169-5.754-19.995-13.439-40.185-22.187-59.512C467.825 61.755 426.39 76 383.892 91.106 276.485 130.698 170.025 180.09 90.435 262.293c-20.597 20.237-37.53 42.786-60.057 62.828-20.596 20.237-45.723 37.103-72.388 49.932-26.664 12.828-54.865 21.619-81.806 27.625-22.884 4.477-44.509 6.169-67 6.802l-6.853.277-4.924.472z"/>
        <path fill="#BCCBFF" d="M28.546 219.143C12.479 242.75-.79 267.612-17.92 292.082c-17.996 23.413-39.656 44.513-63.72 60.516-25.127 16.867-50.924 30.754-78.258 40.603-12.171 4.59-23.278 8.318-36.315 11.851 40.845-8.481 79.483-23.979 114.85-45.632 24.93-14.945 46.198-32.202 65.06-54.556 17.8-21.491 33.867-45.099 51.863-68.511 35.993-46.825 80.85-84.987 130.041-117.857 49.191-32.87 100.785-60.644 153.917-84.38 49.075-22.205 97.953-42.49 146.635-60.852l-10.401-12.7c-12.135-14.818-24.467-27.714-38.728-40.805-46.278 23.46-89.759 48.172-133.437 74.807C186.859 53.68 91.077 122.595 28.546 219.143z"/>
        <path fill="#BCCBFF" d="M-45.95 365.919c24.733-13.024 47.93-30.086 68.527-50.324 19.533-19.374 36.663-43.844 57.26-64.081 38.593-43.65 87.98-78.441 138.708-107.273 50.728-28.832 104.726-51.51 158.528-72.266 42.498-15.107 83.933-29.351 127.102-41.479C495.9 16.07 488.492 2.702 479.154-10.86 428.346 9.228 377.537 29.317 329.329 52.581 223.066 100.052 121.61 157.717 49.151 246.464c-17.8 21.491-34.929 45.962-54.659 67.257C-26.3 335.88-50.56 353.805-75.492 368.75c-25.797 13.887-53.132 23.736-82.2 31.468-11.107 3.728-23.947 5.339-35.921 8.009 52.033-3.465 102.251-17.791 147.662-42.308zM-179.474 318.872c44.087-8.829 86.684-23.653 124.121-45.861 22.427-13.672 42.932-28.906 61.337-47.441 8.81-8.789 17.444-19.316 24.331-29.668 7.673-11.308 14.56-21.66 23.194-32.187 30.866-43.496 70.207-81.699 114.708-112.519 43.54-31.602 90.317-57.383 138.232-80.645 37.005-17.774 74.972-34.767 113.115-50.02-8.75-16.68-19.246-33.183-30.526-48.729-37.967 16.992-72.088 37.11-106.994 58.184C194.082-15.502 108.748 47.526 53.217 134.77c-14.56 21.659-25.451 44.706-41.757 66.542-14.56 21.659-33.75 41.152-55.04 57.343-21.289 16.191-44.677 29.082-67.457 39.278-19.464 8.105-38.32 13.516-58.136 18.145l-6.024 1.484-4.277 1.309z"/>
        <path fill="#BCCBFF" d="M-9.508 107.722c-9.93 23.828-17.152 48.261-27.866 73.046-11.676 24.003-27.02 46.62-45.426 65.155-19.19 19.492-39.518 36.465-61.945 50.137-9.948 6.269-19.111 11.582-30.02 17.07 34.65-14.903 66.064-35.625 93.456-61.211 19.366-17.754 35.064-36.894 47.701-60.117 11.852-22.265 21.782-46.093 33.458-70.096C23.2 73.699 55.99 31.766 93.585-6.262c37.596-38.027 78.251-71.972 121.006-102.617 39.439-28.554 79.055-55.371 118.847-80.449l-11.537-9.375c-13.458-10.937-26.741-20.135-41.769-29.158-36.732 29.16-70.756 58.926-104.603 90.429C100.594-67.549 28.287 10.848-9.508 107.722z"/>
        <path fill="#BCCBFF" d="M-48.74 251.274c19.544-16.016 36.988-35.332 51.547-56.992 13.775-20.703 24.49-45.488 39.05-67.148C68.092 81.471 105.51 41.706 145.205 6.979c39.695-34.726 83.411-64.59 127.304-92.715 34.906-21.074 69.027-41.192 105.071-59.747-9.966-11.288-18.971-21.796-29.722-32.127-41.362 26.992-82.724 53.985-121.201 83.32C141.147-33 61.757 36.454 13.74 128.21 1.888 150.474-8.826 175.259-22.425 197.7c-14.383 23.398-32.612 43.672-51.978 61.426-20.328 16.972-42.755 30.644-67.105 42.754-9.163 5.312-20.249 9.062-30.373 13.594 45.481-12.481 87.372-34.259 123.142-64.2z"/>
    </mask>
    <g mask="url(#prefix__a)">
        <path fill="#F15E22" d="M0 0H381V521H0z"/>
    </g>
</svg>
