<svg xmlns="http://www.w3.org/2000/svg" width="60" height="32.32" viewBox="0 0 60 32.32"><title>IkonkiMistral</title><path d="M26.73,32.32a.74.74,0,0,1-.21,0,.75.75,0,0,1-.54-.72v-10a.75.75,0,0,1,1.5,0v7.33l2-3.17a.75.75,0,1,1,1.28.79L27.36,32A.75.75,0,0,1,26.73,32.32Z"/><path d="M50.72,24.74H36.47a.75.75,0,0,1,0-1.5H50.72a7.78,7.78,0,1,0,0-15.56H36a.75.75,0,0,1,0-1.5H50.72a9.28,9.28,0,1,1,0,18.56Z"/><path d="M33.27,26.13a.75.75,0,0,1-.64-.36l-4.47-7.22H9.28A9.28,9.28,0,1,1,9.28,0H24.74A9.29,9.29,0,0,1,34,9.28v16.1a.75.75,0,0,1-.54.72ZM9.28,1.5a7.78,7.78,0,1,0,0,15.56h19.3a.75.75,0,0,1,.64.36l3.3,5.33V9.28A7.79,7.79,0,0,0,24.74,1.5Z"/><path d="M29.73,6.81H6.35a.75.75,0,0,1,0-1.5H29.73a.75.75,0,0,1,0,1.5Z"/><rect x="6.35" y="8.85" width="23.37" height="1.5"/><rect x="6.35" y="12.39" width="23.37" height="1.5"/><path d="M53,12.92H36a.75.75,0,0,1,0-1.5H53a.75.75,0,0,1,0,1.5Z"/><path d="M53,16.46H36A.75.75,0,1,1,36,15H53a.75.75,0,0,1,0,1.5Z"/><path d="M53,20H36a.75.75,0,0,1,0-1.5H53A.75.75,0,0,1,53,20Z"/></svg>