<svg xmlns="http://www.w3.org/2000/svg" width="31.51" height="32.32" viewBox="0 0 31.51 32.32"><title>IkonkiMistral</title><path d="M17.73,10.77a6.88,6.88,0,0,1,1.38.58,2,2,0,0,0,2.76,2.8,6.89,6.89,0,0,1,.53,1.3,2,2,0,0,0,0,3.94,6.88,6.88,0,0,1-.52,1.27,2,2,0,0,0-1.16-.37,2,2,0,0,0-1.59,3.18,6.89,6.89,0,0,1-1.4.59,2,2,0,0,0-3.94,0,6.88,6.88,0,0,1-1.29-.53,2,2,0,0,0-2.81-2.77,6.89,6.89,0,0,1-.57-1.37,2,2,0,0,0,0-3.94,6.88,6.88,0,0,1,.58-1.39,2,2,0,0,0,1.24.43,2,2,0,0,0,1.58-3.19,6.88,6.88,0,0,1,1.27-.52,2,2,0,0,0,3.94,0m-3.94-1.5a1.5,1.5,0,0,0-.43.06,8.41,8.41,0,0,0-1.54.63,1.5,1.5,0,0,0-.5,2.23.49.49,0,0,1,0,.65.47.47,0,0,1-.34.14.5.5,0,0,1-.31-.11,1.5,1.5,0,0,0-2.24.45A8.4,8.4,0,0,0,7.68,15,1.5,1.5,0,0,0,8.9,16.93a.49.49,0,0,1,0,1,1.5,1.5,0,0,0-1.22,1.91,8.41,8.41,0,0,0,.7,1.67,1.5,1.5,0,0,0,1,.75l.29,0a1.5,1.5,0,0,0,.93-.33.5.5,0,0,1,.32-.11.47.47,0,0,1,.34.14.5.5,0,0,1,0,.65,1.5,1.5,0,0,0,.48,2.24,8.41,8.41,0,0,0,1.57.64,1.5,1.5,0,0,0,1.91-1.22.49.49,0,0,1,1,0,1.5,1.5,0,0,0,1.91,1.22,8.4,8.4,0,0,0,1.7-.72,1.5,1.5,0,0,0,.47-2.2.49.49,0,0,1,0-.65.48.48,0,0,1,.35-.14.5.5,0,0,1,.29.09,1.5,1.5,0,0,0,2.19-.52,8.41,8.41,0,0,0,.63-1.55,1.5,1.5,0,0,0-1.22-1.91.49.49,0,0,1,0-1A1.5,1.5,0,0,0,23.84,15a8.41,8.41,0,0,0-.65-1.58A1.5,1.5,0,0,0,21,12.92a.5.5,0,0,1-.29.09.48.48,0,0,1-.35-.14.49.49,0,0,1,0-.64A1.5,1.5,0,0,0,19.84,10a8.4,8.4,0,0,0-1.68-.7,1.5,1.5,0,0,0-1.91,1.22.49.49,0,0,1-1,0,1.5,1.5,0,0,0-1.48-1.28Z"/><path d="M15.76,21.27a3.85,3.85,0,1,1,3.85-3.85A3.86,3.86,0,0,1,15.76,21.27Zm0-6.2a2.35,2.35,0,1,0,2.35,2.35A2.35,2.35,0,0,0,15.76,15.07Z"/><path d="M27,24.87c.38-.72.72-1.26,1-1.83A13.71,13.71,0,0,0,19.51,4.3c-.46-.15-1.17-.21-.91-.95s.81-.35,1.27-.21a14.83,14.83,0,0,1,10.5,13.57,14.47,14.47,0,0,1-2,8.15c-.07.12-.13.23-.19.36s0,.09,0,.2c.6-.06,1.19-.12,1.78-.17.41,0,.87-.06.92.51s-.36.64-.79.69c-1.07.1-2.13.2-3.2.34a.53.53,0,0,1-.69-.42c-.33-1-.69-2.08-1-3.12-.12-.37-.22-.79.27-1s.73.14.86.58C26.54,23.47,26.75,24.07,27,24.87Z"/><path d="M15,2.26c-.44-.38-.88-.75-1.31-1.15s-.4-.62-.08-.94.66-.17.94.11c.82.82,1.65,1.63,2.45,2.48a.66.66,0,0,1,.06.61c-.6,1-1.24,2-1.86,2.95-.22.34-.48.55-.88.31s-.33-.62-.11-1l1.22-1.94a13,13,0,0,0-4.73.82A13.72,13.72,0,0,0,2.1,20.34c0,.17.14.4.07.51s-.36.52-.56.53A.77.77,0,0,1,1,20.91a17.26,17.26,0,0,1-.41-2.58A14.83,14.83,0,0,1,13,2.72c.63-.11,1.27-.16,1.91-.24Z"/><path d="M2.6,25c-.19.63-.37,1.13-.5,1.63s-.31.79-.82.63-.46-.52-.33-.93c.33-1.07.65-2.13.94-3.21.1-.36.26-.45.62-.42,1.07.09,2.14.15,3.21.22.45,0,.91.11.86.69s-.5.54-.92.52L3.48,24A13.37,13.37,0,0,0,6.43,27.7a13.74,13.74,0,0,0,17.89.2l.16-.13c.32-.25.68-.45,1-.06s.1.71-.22,1-.58.49-.88.72A14.87,14.87,0,0,1,4.81,27.77,27.56,27.56,0,0,1,3,25.52Z"/></svg>