<svg xmlns="http://www.w3.org/2000/svg" width="37.41" height="32.32" viewBox="0 0 37.41 32.32"><title>IkonkiMistral</title><path d="M17.92,15.59a.73.73,0,0,1-.2,0,.75.75,0,0,1-.55-.72V5.63A5.63,5.63,0,0,1,22.78,0h8.8a5.63,5.63,0,0,1,0,11.26H21l-2.45,4A.75.75,0,0,1,17.92,15.59ZM22.78,1.5a4.13,4.13,0,0,0-4.11,4.13V12.2L20,10.12a.75.75,0,0,1,.64-.36h11a4.13,4.13,0,0,0,0-8.26Z"/><path d="M9.44,21.82a6.76,6.76,0,1,1,6.74-6.76A6.76,6.76,0,0,1,9.44,21.82Zm0-12a5.26,5.26,0,1,0,5.24,5.26A5.26,5.26,0,0,0,9.44,9.79Z"/><path d="M17.92,32.32a.75.75,0,0,1-.75-.75,7.73,7.73,0,1,0-15.45,0,.75.75,0,1,1-1.5,0,9.23,9.23,0,1,1,18.45,0A.75.75,0,0,1,17.92,32.32Z"/><path d="M9.44,19.69a3.05,3.05,0,0,1-3-3.05.75.75,0,0,1,1.5,0,1.54,1.54,0,1,0,3.09,0,.75.75,0,0,1,1.5,0A3.05,3.05,0,0,1,9.44,19.69Z"/><path d="M32.15,5.11H22.21a.75.75,0,0,1,0-1.5h9.95a.75.75,0,0,1,0,1.5Z"/><path d="M32.15,7.87H22.21a.75.75,0,0,1,0-1.5h9.95a.75.75,0,0,1,0,1.5Z"/></svg>