<svg xmlns="http://www.w3.org/2000/svg" width="225" height="93" fill="none" viewBox="0 0 225 93">
    <path fill="#F15E22" d="M7.362 40.791c3.205 2.737 6.87 4.887 10.825 6.352 2.307.853 4.721 1.385 7.174 1.58 1.22.087 2.444.087 3.664 0 1.244-.106 2.5-.21 3.769-.293 5.086-.32 10.19.213 15.099 1.58 4.866 1.358 9.617 3.1 14.207 5.205 3.523 1.638 7.045 3.416 10.485 5.264.744-1.676 1.353-3.41 1.82-5.182-3.581-1.439-7.197-2.796-10.849-4.024-9.264-3.194-18.939-5.65-28.72-4.48-2.43.245-4.825.783-7.373.97-2.518.155-5.045-.054-7.503-.62-2.452-.598-4.82-1.502-7.045-2.69-1.66-.879-3.233-1.913-4.696-3.089l-.47-.327-.387-.246z"/>
    <path fill="#F15E22" d="M33.134 40.51c-2.348.714-4.626 1.662-7.045 2.34-2.464.578-5 .79-7.526.632-2.502-.178-4.971-.67-7.35-1.462-1.021-.34-2.031-.737-3.018-1.17 3.151 1.634 6.564 2.707 10.086 3.17 2.413.33 4.861.31 7.268-.059 2.349-.42 4.697-1.17 7.186-1.742 4.92-1.104 9.989-1.4 15.005-.878 4.978.488 9.91 1.368 14.748 2.632 4.414 1.17 8.77 2.48 13.091 3.92v-1.358c-.035-1.599-.18-3.194-.434-4.773-4.31-.877-8.618-1.66-12.916-2.246-9.71-1.439-19.749-2.012-29.095.995z"/>
    <path fill="#F15E22" d="M20.137 46.301c2.384.468 4.824.594 7.244.374 2.348-.245 4.814-.877 7.291-1.17 4.983-.704 10.048-.59 14.994.34 4.907.898 9.739 2.165 14.454 3.79 3.604 1.252 7.15 2.62 10.66 4.071.288-1.367.492-2.75.611-4.141-4.438-1.486-8.9-2.773-13.42-3.942-9.499-2.48-19.408-4.13-29.036-2.141-2.349.456-4.78 1.17-7.315 1.52-2.512.308-5.056.245-7.55-.187-2.469-.446-4.871-1.2-7.15-2.246-.975-.444-1.926-.935-2.842-1.474 3.597 2.579 7.71 4.354 12.059 5.206z"/>
    <path fill="#F15E22" d="M61.372 56.77c-4.486-2.128-9.135-3.9-13.902-5.298-4.745-1.33-9.667-1.926-14.594-1.767-1.245 0-2.49.094-3.734.164-1.28.065-2.563.038-3.84-.082-2.548-.248-5.048-.862-7.42-1.825-2.332-1-4.545-2.255-6.599-3.743-1.713-1.21-3.312-2.573-4.778-4.071-1.536 8.227-.034 16.73 4.228 23.94 4.261 7.21 10.996 12.643 18.961 15.296 7.965 2.653 16.625 2.347 24.382-.86 7.757-3.208 14.09-9.101 17.828-16.594-3.475-1.813-6.974-3.545-10.532-5.16z"/>
    <path fill="#F15E22" d="M18.54 42.593c2.43.067 4.859-.217 7.209-.842 2.348-.667 4.59-1.697 6.962-2.504 4.77-1.628 9.776-2.47 14.818-2.492 5.002-.05 10 .294 14.947 1.03 4.18.62 8.324 1.392 12.446 2.27-1.508-7.92-5.738-15.07-11.962-20.22-6.225-5.15-14.055-7.978-22.146-8-8.09-.023-15.936 2.764-22.189 7.88-6.253 5.115-10.522 12.24-12.073 20.152 3.772 1.699 7.849 2.626 11.988 2.726z"/>
    <path fill="#29429B" d="M127.617 19.887c.258 0 .446.187.493.596l2.701 27.807c0 .41-.153.596-.564.596h-4.767c-.34 0-.528-.187-.564-.596l-1.632-17.945-6.798 17.103c-.051.166-.156.311-.298.413-.142.101-.314.153-.488.148h-3.523c-.172-.005-.339-.062-.479-.162-.14-.1-.247-.239-.308-.4l-6.774-17.102-1.656 17.968c0 .41-.223.597-.563.597h-4.768c-.41 0-.598-.187-.563-.597l2.736-27.783c0-.41.223-.596.493-.596h4.544c.475-.071.96.04 1.357.312.396.271.675.682.78 1.15l7.044 18.225 7.045-18.225c.088-.452.341-.856.709-1.135.368-.278.827-.411 1.287-.374h4.556zM140.685 22.11c.03.421-.035.844-.189 1.238-.155.394-.396.749-.704 1.039-.309.29-.679.508-1.083.638-.404.13-.832.169-1.253.114-2.101 0-3.311-1.17-3.311-3.03 0-1.86 1.174-2.994 3.311-2.994s3.229 1.088 3.229 2.994zm-1.057 5.849c.077-.012.156-.006.23.018.073.024.141.065.196.12.055.054.096.121.12.195.024.073.03.151.018.228v19.793c0 .41-.188.597-.564.597h-4.438c-.375 0-.563-.187-.563-.597V28.508c-.012-.076-.006-.154.018-.228.024-.074.065-.14.12-.195.055-.055.122-.096.196-.12.074-.024.152-.03.229-.018l4.438.012zM158.685 28.25c.411.118.598.305.598.598v2.842c0 .41-.223.597-.634.597h-6.763c-1.467 0-2.219.444-2.219 1.345v.374c0 .714.599 1.31 1.808 1.72l4.803 1.708c3.005 1.053 3.945 2.808 3.945 5.615v.597c0 4.082-2.783 5.463-8.008 5.463-2.596.015-5.19-.11-7.773-.375-.411 0-.634-.187-.634-.561V45.13c0-.374.223-.561.634-.561h7.703c1.996 0 2.595-.258 2.595-1.275v-.34c0-.748-.447-1.17-2.067-1.754l-4.626-1.65c-2.56-.865-3.828-2.772-3.828-5.685v-.713c0-3.86 2.853-5.393 8.525-5.393 1.991-.012 3.979.152 5.941.49zM169.992 22.145c.411-.117.598.07.598.561v5.37h3.452c.411 0 .634.187.634.561v2.948c0 .374-.223.561-.634.561h-3.452v10.225c0 1.532.529 1.906 2.22 1.906h1.538c.411 0 .634.188.634.562v3.182c.009.086.002.174-.024.257-.025.083-.067.16-.123.227-.056.067-.124.121-.202.16-.078.04-.163.064-.25.07-1.051.217-2.121.33-3.194.339-1.184.072-2.373-.042-3.522-.34-1.761-.491-2.478-1.65-2.63-4.492v-12.06h-2.219c-.411 0-.599-.188-.599-.562v-2.995c0-.374.188-.561.599-.561h2.219v-4.165c-.007-.148.045-.293.143-.404.099-.111.237-.18.385-.192l4.427-1.159zM189.717 28.17c.177.025.336.117.448.256.111.139.165.315.151.492v3.065c0 .374-.223.561-.634.561h-3.522c-2.067 0-2.631.375-2.631 1.907v13.862c0 .41-.187.597-.563.597h-4.497c-.376 0-.564-.187-.564-.597V33.035c-.04-.708.061-1.417.299-2.086.238-.67.607-1.284 1.087-1.809 1.587-1.076 3.502-1.564 5.413-1.38 1.681-.037 3.361.1 5.013.41zM207.271 29.327c.671.611 1.193 1.368 1.525 2.211.332.844.465 1.753.388 2.656v12.95c.026.26-.043.52-.194.735-.151.215-.373.369-.628.434-2.803.572-5.662.835-8.524.784-3.158 0-4.696-.152-6.387-1.006-1.691-.854-2.254-2.585-2.348-5.463 0-2.34.634-4 1.843-4.867 1.789-.99 3.831-1.433 5.871-1.275h4.767v-1.392c0-1.72-1.174-2.585-3.523-2.585h-6.798c-.411 0-.528-.117-.528-.561v-3.03c0-.41.117-.492.528-.597 2.243-.403 4.519-.591 6.798-.561 3.523 0 5.93.526 7.21 1.567zm-3.64 10.739h-4.321c-1.949 0-2.63.597-2.63 2.246 0 1.65.786 2.34 3.193 2.34 1.264.043 2.528-.083 3.758-.375v-4.211zM218.542 19.887c.077-.012.155-.006.229.018.074.024.141.065.196.12.055.055.096.121.121.195.024.074.03.152.018.228v27.865c0 .41-.188.597-.564.597h-4.438c-.376 0-.564-.187-.564-.597V20.495c-.012-.076-.005-.155.019-.228.024-.074.065-.14.12-.195.055-.055.122-.096.196-.12.074-.024.152-.03.229-.018l4.438-.047zM98.745 55.075c.211-.059.317 0 .317.234v2.948h2.348c.188 0 .27.082.27.269v.737c0 .163-.082.257-.27.257h-2.348v7.71c0 .947.258 1.169 1.374 1.169h1.174c.188 0 .293.082.293.257v.714c0 .152-.082.234-.258.269-.386.077-.78.112-1.174.105-.561.034-1.124-.021-1.667-.164-.74-.234-1.268-.783-1.268-2.047V59.52h-1.257c-.188 0-.27-.082-.27-.257v-.772c0-.188.082-.27.27-.27h1.175v-2.643c-.001-.066.023-.13.066-.18.043-.049.103-.08.168-.09l1.057-.233zM111.637 59.228c.587.713.904 2.164.928 4.34v.608c0 .398-.083.526-.658.526h-6.904c-.083 1.035.15 2.071.669 2.972.33.287.717.502 1.136.629.419.127.86.163 1.295.108h3.323c.188 0 .27.082.27.269v.655c.001.035-.004.07-.016.102-.013.032-.031.062-.056.087-.024.025-.053.046-.085.06-.032.013-.067.02-.102.02-1.107.112-2.221.162-3.334.152-1.961 0-3.041-.257-3.746-1.17-.704-.912-.868-2.188-.868-4.68 0-2.49.293-3.895.868-4.678.576-.784 1.844-1.17 3.746-1.17s2.959.433 3.534 1.17zm-6.023 1.029c-.492.947-.703 2.014-.611 3.077h6.023c.089-1.068-.114-2.139-.587-3.1-.312-.288-.685-.503-1.091-.63-.406-.128-.835-.164-1.257-.107-.444-.067-.897-.033-1.325.099-.429.131-.823.357-1.152.661zM122.568 58.303c.036-.001.071.004.104.017.033.013.063.033.087.059.025.026.044.056.055.09.012.033.016.068.013.103v.656c0 .187-.083.269-.271.269h-3.111c-.47-.066-.949-.022-1.4.128-.45.15-.859.403-1.195.737-.502 1.123-.712 2.355-.61 3.58-.113 1.23.085 2.468.575 3.603.336.335.745.587 1.195.737.45.15.93.195 1.4.129h3.111c.188 0 .27.082.27.269v.655c.002.035-.004.07-.016.102-.012.032-.031.062-.055.087-.024.025-.053.046-.085.06-.032.013-.067.02-.102.02-1.041.11-2.088.16-3.135.152-1.926 0-3.194-.39-3.804-1.17-.611-.78-.908-2.34-.892-4.68 0-2.339.293-3.895.892-4.678.599-.784 1.878-1.17 3.804-1.17 1.061.014 2.12.096 3.17.245zM126.431 53.893c.165 0 .258.082.258.27v4.094c.717-.059 1.738-.106 3.03-.106.521-.006 1.042.013 1.561.059.753.002 1.486.243 2.09.69.74.678 1.034 1.848 1.034 4.048v6.422c0 .187-.083.269-.271.269h-.998c-.187 0-.27-.082-.27-.27v-6.41c0-1.626-.152-2.503-.681-2.948-.528-.444-1.033-.526-2.219-.526h-3.276v9.897c0 .187-.082.269-.258.269h-.998c-.188 0-.27-.082-.27-.27V54.175c0-.187.082-.27.27-.27l.998-.01zM143.574 58.221c.752.002 1.485.244 2.09.69.739.68 1.033 1.849 1.033 4.048v6.422c0 .188-.106.27-.317.27h-.951c-.188 0-.27-.082-.27-.27V62.96c0-1.626-.153-2.503-.681-2.948-.529-.444-1.01-.503-2.219-.503h-3.276v9.885c0 .187-.083.27-.259.27h-.998c-.188 0-.27-.083-.27-.27V58.724c0-.163.082-.257.27-.268 1.414-.216 2.844-.314 4.274-.293.525-.007 1.05.013 1.574.059zM157.898 68.574c-.693.925-1.773 1.17-3.804 1.17-2.031 0-3.194-.374-3.804-1.17-.611-.795-.893-2.34-.893-4.679 0-2.34.294-3.895.893-4.68.598-.783 1.878-1.169 3.804-1.169 1.925 0 3.193.374 3.804 1.17.611.795.904 2.34.904 4.68 0 2.339-.164 3.754-.904 4.678zm-6.411-8.188c-.49 1.126-.688 2.357-.575 3.58-.113 1.23.085 2.468.575 3.602.336.335.745.588 1.195.738.451.15.93.194 1.4.128 1.35 0 2.219-.293 2.595-.866.507-1.13.71-2.371.587-3.603.122-1.224-.08-2.458-.587-3.58-.376-.572-1.245-.865-2.595-.865-.472-.073-.955-.034-1.409.112-.455.146-.869.396-1.209.73l.023.024zM162.865 53.893c.188 0 .27.082.27.258v15.207c0 .187-.082.27-.27.27h-.998c-.188 0-.27-.083-.27-.27V54.151c0-.164.082-.258.27-.258h.998zM174.43 68.574c-.693.925-1.773 1.17-3.804 1.17-2.032 0-3.194-.374-3.804-1.17-.611-.795-.893-2.34-.893-4.679 0-2.34.294-3.895.893-4.68.598-.783 1.878-1.169 3.804-1.169 1.925 0 3.193.374 3.804 1.17.611.795.904 2.34.904 4.68 0 2.339-.164 3.754-.904 4.678zm-6.411-8.188c-.49 1.126-.688 2.357-.575 3.58-.113 1.23.085 2.468.575 3.602.335.336.744.589 1.195.739.45.15.93.194 1.4.127 1.35 0 2.219-.293 2.595-.866.507-1.13.71-2.371.587-3.603.122-1.224-.08-2.458-.587-3.58-.376-.572-1.245-.865-2.595-.865-.468-.07-.947-.03-1.397.116-.451.146-.861.395-1.198.726v.024zM186.688 58.432c.039.001.078.01.113.028.035.017.067.04.092.07.025.03.044.065.055.102.012.038.015.077.01.116v10.037c0 2.047-.317 3.392-.928 4.07-.61.68-1.855 1.03-3.769 1.03-.953.002-1.905-.049-2.853-.152-.036-.001-.072-.01-.105-.026-.033-.015-.063-.037-.087-.065-.024-.027-.042-.06-.054-.094-.011-.034-.015-.071-.012-.107v-.655c-.006-.035-.004-.072.007-.106s.03-.065.055-.09c.025-.025.056-.044.091-.055.034-.01.07-.013.105-.007h2.853c.889.114 1.789-.094 2.537-.585.247-.303.43-.654.539-1.03.109-.375.141-.769.095-1.157v-.152c-.963.114-1.932.165-2.901.152-1.191.09-2.384-.145-3.451-.679-1.104-.842-1.327-2.257-1.351-5.1 0-2.34.294-3.942.869-4.68.575-.736 1.855-1.17 3.781-1.17 1.441.005 2.881.107 4.309.305zm-1.245 1.076h-3.041c-1.35 0-2.219.27-2.583.843-.459 1.15-.64 2.393-.528 3.626-.06 1.042.039 2.087.293 3.1.364 1.053 1.175 1.345 2.959 1.345.969.008 1.938-.043 2.9-.152v-8.762zM198.969 58.257c.188 0 .27.082.27.269v10.212c0 2.106-.187 3.24-.927 4.071-.74.83-1.82 1.076-3.781 1.076-.988.004-1.976-.047-2.959-.152-.036-.001-.072-.01-.105-.026-.033-.015-.063-.038-.087-.065-.024-.027-.042-.06-.054-.094-.011-.034-.015-.071-.012-.107v-.655c-.006-.035-.004-.072.007-.106s.03-.065.055-.09c.025-.025.056-.044.091-.055.034-.01.07-.013.105-.007h2.959c.888.114 1.788-.094 2.536-.585.247-.303.431-.654.54-1.03.109-.375.141-.769.094-1.157v-.164c-1.001.115-2.009.17-3.017.164-2.032 0-3.112-.257-3.804-1.17-.693-.912-.846-2.188-.846-4.68v-5.415c0-.188.082-.27.258-.27h.998c.188 0 .271.082.271.27v5.369c-.108 1.247.081 2.501.551 3.662.364.573 1.175.842 2.584.842 1.008.004 2.016-.059 3.017-.187V58.49c0-.188.082-.27.27-.27l.986.036z"/>
</svg>
