<svg xmlns="http://www.w3.org/2000/svg" width="70" height="68" fill="none" viewBox="0 0 70 68">
    <path fill="#F15E22" d="M1.45 28.386c3.221 2.682 6.904 4.79 10.88 6.226 2.317.837 4.743 1.358 7.208 1.548 1.225.087 2.456.087 3.681 0 1.25-.103 2.513-.206 3.787-.286 5.112-.315 10.24.209 15.173 1.548 4.89 1.332 9.664 3.038 14.276 5.103 3.54 1.605 7.08 3.348 10.537 5.16.747-1.643 1.359-3.342 1.828-5.08-3.598-1.41-7.232-2.74-10.901-3.945-9.31-3.13-19.031-5.538-28.86-4.392-2.442.241-4.849.769-7.41.952-2.53.152-5.069-.053-7.538-.608-2.465-.586-4.843-1.472-7.08-2.637-1.668-.861-3.248-1.875-4.719-3.028l-.472-.32-.39-.241z"/>
    <path fill="#F15E22" d="M27.348 28.11c-2.36.7-4.648 1.629-7.079 2.294-2.476.566-5.024.775-7.562.619-2.515-.174-4.996-.656-7.386-1.433-1.027-.333-2.041-.723-3.033-1.147 3.166 1.602 6.596 2.654 10.135 3.107 2.425.324 4.885.304 7.304-.057 2.36-.413 4.719-1.147 7.22-1.708 4.945-1.083 10.038-1.373 15.079-.86 5.002.478 9.957 1.34 14.819 2.58 4.436 1.146 8.813 2.43 13.155 3.84v-1.33c-.035-1.567-.181-3.13-.436-4.678-4.33-.86-8.66-1.628-12.979-2.201-9.757-1.41-19.845-1.973-29.237.974z"/>
    <path fill="#F15E22" d="M14.287 33.787c2.397.458 4.848.582 7.28.367 2.36-.241 4.837-.86 7.327-1.147 5.007-.69 10.097-.578 15.067.333 4.93.88 9.786 2.122 14.524 3.715 3.622 1.227 7.185 2.569 10.713 3.99.288-1.34.493-2.695.613-4.059-4.46-1.456-8.943-2.718-13.486-3.864-9.544-2.431-19.502-4.048-29.177-2.099-2.36.447-4.802 1.147-7.35 1.49-2.525.302-5.081.24-7.587-.183-2.48-.437-4.895-1.177-7.185-2.201-.98-.436-1.935-.918-2.856-1.445 3.615 2.527 7.748 4.268 12.117 5.103z"/>
    <path fill="#F15E22" d="M55.724 44.05c-4.508-2.087-9.18-3.824-13.97-5.195-4.768-1.303-9.714-1.887-14.665-1.731-1.25 0-2.501.091-3.752.16-1.286.064-2.576.037-3.858-.08-2.561-.243-5.073-.846-7.457-1.789-2.343-.98-4.567-2.211-6.63-3.67-1.722-1.186-3.33-2.521-4.802-3.99-1.543 8.064-.034 16.4 4.248 23.467 4.282 7.069 11.05 12.394 19.054 14.995 8.004 2.6 16.705 2.301 24.5-.843 7.795-3.145 14.158-8.922 17.915-16.267-3.492-1.777-7.008-3.474-10.583-5.057z"/>
    <path fill="#F15E22" d="M12.683 30.152c2.443.065 4.883-.213 7.244-.826 2.36-.654 4.613-1.663 6.997-2.454 4.793-1.596 9.822-2.42 14.89-2.442 5.026-.05 10.048.288 15.019 1.009 4.2.608 8.365 1.364 12.506 2.224-1.515-7.763-5.765-14.771-12.02-19.82C51.064 2.795 43.196.022 35.066 0c-8.13-.022-16.014 2.71-22.297 7.725-6.283 5.014-10.573 12-12.132 19.755 3.79 1.665 7.887 2.573 12.046 2.672z"/>
</svg>
