<svg xmlns="http://www.w3.org/2000/svg" width="30.06" height="32.32" viewBox="0 0 30.06 32.32"><title>IkonkiMistral</title><path d="M28.19,32.32H1.86a.75.75,0,0,1-.75-.75V1.68A.75.75,0,0,1,1.86.93H7.2a.75.75,0,0,1,0,1.5H2.61V30.82H27.44V2.43H23.53a.75.75,0,0,1,0-1.5h4.66a.75.75,0,0,1,.75.75V31.57A.75.75,0,0,1,28.19,32.32Z"/><path d="M21.11,4.09H9.64a.75.75,0,0,1-.75-.75V3a2.8,2.8,0,0,1,2.56-3h7.86a2.8,2.8,0,0,1,2.56,3v.35A.75.75,0,0,1,21.11,4.09ZM10.43,2.59h9.89c-.13-.62-.54-1.08-1-1.08H11.45C11,1.5,10.56,2,10.43,2.59Z"/><path d="M7.27,13.32a.75.75,0,0,1-.52-.21L5.14,11.54a.75.75,0,0,1,1-1.08l1.06,1,2.89-3.06a.75.75,0,0,1,1.09,1L7.81,13.08a.75.75,0,0,1-.53.24Z"/><path d="M24.72,10.09h-10a.75.75,0,1,1,0-1.5h10a.75.75,0,1,1,0,1.5Z"/><path d="M19.31,13.32H14.67a.75.75,0,0,1,0-1.5h4.64a.75.75,0,0,1,0,1.5Z"/><path d="M24.72,16.86h-10a.75.75,0,0,1,0-1.5h10a.75.75,0,1,1,0,1.5Z"/><path d="M19.31,20.09H14.67a.75.75,0,1,1,0-1.5h4.64a.75.75,0,0,1,0,1.5Z"/><path d="M24.72,23.69h-10a.75.75,0,0,1,0-1.5h10a.75.75,0,0,1,0,1.5Z"/><path d="M19.31,26.92H14.67a.75.75,0,0,1,0-1.5h4.64a.75.75,0,0,1,0,1.5Z"/><path d="M9.43,20.15H6a.75.75,0,0,1-.75-.75V16A.75.75,0,0,1,6,15.3H9.43a.75.75,0,0,1,.75.75V19.4A.75.75,0,0,1,9.43,20.15ZM6.8,18.65H8.68V16.8H6.8Z"/><path d="M9.43,27H6a.75.75,0,0,1-.75-.75V22.88A.75.75,0,0,1,6,22.13H9.43a.75.75,0,0,1,.75.75v3.35A.75.75,0,0,1,9.43,27ZM6.8,25.48H8.68V23.63H6.8Z"/></svg>